<svg width="245.88745727539063px" height="120.81002502441406px" xmlns="http://www.w3.org/2000/svg" viewBox="127.05627136230468 14.59498748779297 245.88745727539063 120.81002502441406" style="background: rgba(0, 0, 0, 0);" preserveAspectRatio="xMidYMid"><defs><filter id="editing-hole" x="-100%" y="-100%" width="300%" height="300%"><feFlood flood-color="#000" result="black"></feFlood><feMorphology operator="dilate" radius="2" in="SourceGraphic" result="erode"></feMorphology><feGaussianBlur in="erode" stdDeviation="4" result="blur"></feGaussianBlur><feOffset in="blur" dx="2" dy="2" result="offset"></feOffset><feComposite operator="atop" in="offset" in2="black" result="merge"></feComposite><feComposite operator="in" in="merge" in2="SourceGraphic" result="inner-shadow"></feComposite></filter></defs><g filter="url(#editing-hole)"><g transform="translate(168.66062378883362, 97.39999961853027)"><path d="M42.62-26.56L42.62-26.56L42.62-26.56Q42.62 0.70 13.06 0.70L13.06 0.70L13.06 0.70Q8.32 0.70 0.51-0.45L0.51-0.45L7.68-38.27L7.68-38.27Q8.19-40.83 8.51-42.30L8.51-42.30L8.51-42.30Q18.24-43.01 22.56-43.01L22.56-43.01L22.56-43.01Q26.88-43.01 30.85-42.11L30.85-42.11L30.85-42.11Q34.82-41.22 37.44-39.23L37.44-39.23L37.44-39.23Q42.62-35.33 42.62-26.56ZM29.44-28.93L29.44-28.93L29.44-28.93Q29.44-38.46 22.59-38.46L22.59-38.46L21.95-38.46L21.95-38.46Q21.63-38.46 21.31-38.40L21.31-38.40L14.72-4.03L14.72-4.03Q14.98-3.90 15.23-3.90L15.23-3.90L15.74-3.90L15.74-3.90Q18.11-3.90 20.58-5.38L20.58-5.38L20.58-5.38Q23.04-6.85 24.96-9.86L24.96-9.86L24.96-9.86Q29.44-16.83 29.44-28.93ZM85.82-1.09L85.82-1.09L85.82-1.09Q80.13 1.28 73.15 1.28L73.15 1.28L73.15 1.28Q67.01 1.28 62.85-1.92L62.85-1.92L62.85-1.92Q58.30-5.31 58.30-11.33L58.30-11.33L58.30-11.33Q58.30-20.22 68.99-22.72L68.99-22.72L68.99-22.72Q67.20-27.78 67.20-31.30L67.20-31.30L67.20-31.30Q67.20-34.82 68.54-37.09L68.54-37.09L68.54-37.09Q69.89-39.36 72.19-40.83L72.19-40.83L72.19-40.83Q76.54-43.52 83.84-43.52L83.84-43.52L83.84-43.52Q88.90-43.52 92.10-41.60L92.10-41.60L92.10-41.60Q95.36-39.62 95.36-36.67L95.36-36.67L95.36-36.67Q95.36-33.34 93.06-31.49L93.06-31.49L93.06-31.49Q91.01-29.76 87.62-29.76L87.62-29.76L87.62-29.76Q85.63-29.76 84.99-29.95L84.99-29.95L84.99-29.95Q85.25-31.36 85.25-33.66L85.25-33.66L85.25-33.66Q85.25-35.97 84.48-37.54L84.48-37.54L84.48-37.54Q83.71-39.10 82.43-39.10L82.43-39.10L82.43-39.10Q80.06-39.10 79.17-37.02L79.17-37.02L79.17-37.02Q78.27-34.94 78.27-31.90L78.27-31.90L78.27-31.90Q78.27-28.86 78.88-26.08L78.88-26.08L78.88-26.08Q79.49-23.30 80.64-20.61L80.64-20.61L80.64-20.61Q83.07-15.04 86.98-11.26L86.98-11.26L86.98-11.26Q88.00-13.76 88.13-17.66L88.13-17.66L88.13-17.66Q88.13-21.12 85.76-23.17L85.76-23.17L85.76-23.17Q86.66-24 88.38-24.51L88.38-24.51L88.38-24.51Q90.11-25.02 91.65-25.02L91.65-25.02L91.65-25.02Q95.04-25.02 96.64-22.98L96.64-22.98L96.64-22.98Q98.24-20.93 98.24-17.66L98.24-17.66L98.24-17.66Q98.24-11.84 94.08-7.04L94.08-7.04L94.08-7.04Q95.68-6.59 97.15-6.59L97.15-6.59L97.15-6.59Q100.35-6.59 101.38-7.42L101.38-7.42L101.38-7.42Q101.89-6.21 101.89-4.61L101.89-4.61L101.89-4.61Q101.89-1.41 99.81-0.06L99.81-0.06L99.81-0.06Q97.73 1.28 94.02 1.28L94.02 1.28L94.02 1.28Q90.30 1.28 85.82-1.09ZM71.17-17.86L71.17-17.86L71.17-17.86Q69.76-16.45 69.76-13.95L69.76-13.95L69.76-13.95Q69.76-11.46 70.34-9.89L70.34-9.89L70.34-9.89Q70.91-8.32 71.81-7.17L71.81-7.17L71.81-7.17Q73.86-4.67 76.54-4.67L76.54-4.67L76.54-4.67Q78.98-4.67 80.38-5.18L80.38-5.18L80.38-5.18Q75.01-10.24 71.17-17.86ZM132.22 0L118.59 0L125.89-38.91L126.59-42.24L140.29-42.24L132.22 0ZM158.21-3.78L158.21-3.78L158.21-3.78Q156.48 1.28 149.82 1.28L149.82 1.28L149.82 1.28Q144.90 1.28 141.50-4.61L141.50-4.61L141.50-4.61Q138.05-10.50 137.41-20.10L137.41-20.10L137.41-20.10Q144.45-32.96 149.31-38.27L149.31-38.27L149.31-38.27Q153.98-43.33 158.85-43.33L158.85-43.33L158.85-43.33Q161.47-43.33 163.36-41.92L163.36-41.92L163.36-41.92Q165.25-40.51 165.70-38.27L165.70-38.27L165.70-38.27Q163.52-37.38 162.50-36.67L162.50-36.67L162.50-36.67Q159.94-34.75 156.48-30.46L156.48-30.46L150.66-23.49L150.66-23.49Q149.25-21.82 148.67-21.06L148.67-21.06L148.67-21.06Q149.63-15.68 152.51-10.37L152.51-10.37L152.51-10.37Q155.26-5.31 158.21-3.78Z" fill="#ccc"></path></g></g><style>text {
  font-size: 64px;
  font-family: Arial Black;
  dominant-baseline: central;
  text-anchor: middle;
}</style></svg>